Coordinates
version=1
nRows=12
nColumns=24
inDegrees=yes

Units are S.I. units (second, meters, Newtons, ...)
Angles are in degrees.

endheader
time	pelvis_tilt	pelvis_list	pelvis_rotation	pelvis_tx	pelvis_ty	pelvis_tz	hip_flexion_r	hip_adduction_r	hip_rotation_r	knee_angle_r	ankle_angle_r	subtalar_angle_r	mtp_angle_r	hip_flexion_l	hip_adduction_l	hip_rotation_l	knee_angle_l	ankle_angle_l	subtalar_angle_l	mtp_angle_l	lumbar_extension	lumbar_bending	lumbar_rotation
      3.60000000	     64.33935166	     -4.88086293	      7.08365886	      0.83406596	      1.08813921	     -0.24539362	      1.16290464	     -8.63114425	     -2.11831526	    -61.90269668	     11.50082716	     24.01724078	      0.00000000	      4.10587444	     -6.61866398	      3.69321419	    -63.52973885	      0.03818659	     -2.09426311	      0.00000000	      0.00000000	      0.00000000	      0.00000000
      3.61000000	     64.34999318	     -4.87248456	      7.08513981	      0.83407060	      1.08814811	     -0.24542971	      1.16420879	     -8.57968405	     -2.30235562	    -61.79762548	     11.49465993	     24.06038525	      0.00000000	      4.08842610	     -6.61134786	      3.69578230	    -63.52518179	      0.03719266	     -2.10918609	      0.00000000	      0.00000000	      0.00000000	      0.00000000
      3.62000000	     64.36135526	     -4.86396908	      7.08626309	      0.83407693	      1.08815964	     -0.24546224	      1.16691387	     -8.52302028	     -2.49565135	    -61.70288457	     11.49233016	     24.11417757	      0.00000000	      4.07038279	     -6.60341165	      3.69904533	    -63.52066828	      0.03494288	     -2.11993118	      0.00000000	      0.00000000	      0.00000000	      0.00000000
      3.63000000	     64.37248269	     -4.85561975	      7.08813529	      0.83407221	      1.08818097	     -0.24548798	      1.17125351	     -8.46145903	     -2.69487868	    -61.61729351	     11.49300826	     24.18057488	      0.00000000	      4.05285942	     -6.59534454	      3.70372975	    -63.51582599	      0.03421544	     -2.12843313	      0.00000000	      0.00000000	      0.00000000	      0.00000000
      3.64000000	     64.38264021	     -4.84767279	      7.09166968	      0.83405662	      1.08820998	     -0.24550922	      1.17704309	     -8.39623358	     -2.89781566	    -61.53958178	     11.49566754	     24.25844629	      0.00000000	      4.03671947	     -6.58779926	      3.71022524	    -63.51049358	      0.03790636	     -2.13728776	      0.00000000	      0.00000000	      0.00000000	      0.00000000
      3.65000000	     64.39170842	     -4.84028329	      7.09688504	      0.83404250	      1.08823706	     -0.24552859	      1.18388063	     -8.32879922	     -3.10450516	    -61.46906764	     11.49934004	     24.34352927	      0.00000000	      4.02231579	     -6.58091367	      3.71812578	    -63.50473518	      0.04789737	     -2.14865130	      0.00000000	      0.00000000	      0.00000000	      0.00000000
      3.66000000	     64.40014051	     -4.83321741	      7.10270978	      0.83403860	      1.08825780	     -0.24554643	      1.19155105	     -8.25981358	     -3.31742546	    -61.40613101	     11.50311499	     24.42968634	      0.00000000	      4.00914505	     -6.57394109	      3.72619185	    -63.49878088	      0.06417169	     -2.16330960	      0.00000000	      0.00000000	      0.00000000	      0.00000000
      3.67000000	     64.40873312	     -4.82558954	      7.10745989	      0.83404270	      1.08827821	     -0.24556741	      1.20024433	     -8.18887266	     -3.54003180	    -61.35205394	     11.50622534	     24.51087592	      0.00000000	      3.99587694	     -6.56560480	      3.73291116	    -63.49291254	      0.08452252	     -2.18027236	      0.00000000	      0.00000000	      0.00000000	      0.00000000
      3.68000000	     64.41830254	     -4.81651002	      7.11003274	      0.83404703	      1.08830369	     -0.24559859	      1.21027377	     -8.11576034	     -3.77402861	    -61.30824841	     11.50847301	     24.58295852	      0.00000000	      3.98090359	     -6.55501192	      3.73733841	    -63.48726104	      0.10498820	     -2.19703373	      0.00000000	      0.00000000	      0.00000000	      0.00000000
      3.69000000	     64.42940541	     -4.80593462	      7.11090746	      0.83404661	      1.08832762	     -0.24563816	      1.22156430	     -8.04181433	     -4.01726824	    -61.27540723	     11.51070464	     24.64473105	      0.00000000	      3.96316958	     -6.54241595	      3.73963614	    -63.48157094	      0.12091223	     -2.21040214	      0.00000000	      0.00000000	      0.00000000	      0.00000000
      3.70000000	     64.44238044	     -4.79456839	      7.11189779	      0.83404179	      1.08834252	     -0.24567380	      1.23363036	     -7.96951582	     -4.26418713	    -61.25317522	     11.51475349	     24.69801679	      0.00000000	      3.94275541	     -6.52900571	      3.74082457	    -63.47515554	      0.12830402	     -2.21757739	      0.00000000	      0.00000000	      0.00000000	      0.00000000
      3.71000000	     64.45723986	     -4.78305442	      7.11475991	      0.83403339	      1.08835478	     -0.24569781	      1.24593447	     -7.90055553	     -4.50854206	    -61.24058881	     11.52256892	     24.74698503	      0.00000000	      3.92072160	     -6.51579319	      3.74182921	    -63.46724962	      0.12504603	     -2.21706807	      0.00000000	      0.00000000	      0.00000000	      0.00000000
